<svg xmlns="http://www.w3.org/2000/svg" viewBox="0 0 47 47">
    <path fill="none" stroke-width="1" d="M44.683,37.661l-22.373,-22.373c-1.044,-1.043 -1.577,-2.491 -1.467,-3.961c0.216,-2.782 -0.74,-5.636 -2.864,-7.766c-1.929,-1.925 -4.45,-2.878 -6.973,-2.878c-0.949,0 -1.901,0.134 -2.819,0.404l5.938,5.938c0.644,2.976 -3.669,7.338 -6.681,6.68l-5.936,-5.937c-0.271,0.922 -0.408,1.873 -0.408,2.826c0,2.523 0.955,5.041 2.881,6.97c2.125,2.128 4.982,3.081 7.765,2.865c1.467,-0.112 2.916,0.424 3.958,1.467l22.374,22.371c0.877,0.877 2.064,1.367 3.302,1.367c2.563,0 4.672,-2.075 4.672,-4.671c0,-1.195 -0.457,-2.39 -1.369,-3.302Zm-3.314,5.164c-1.036,0 -1.873,-0.839 -1.873,-1.873c0,-1.034 0.837,-1.873 1.873,-1.873c1.036,0 1.873,0.839 1.873,1.873c0,1.034 -0.837,1.873 -1.873,1.873Zm-14.862,-28.636l9.977,-9.961c1.094,-1.096 2.525,-1.644 3.958,-1.644c1.431,0 2.864,0.547 3.958,1.644c1.103,1.1 1.652,2.542 1.652,3.98c0,1.431 -0.545,2.862 -1.635,3.952l-9.976,9.961l-7.934,-7.932Zm-6.612,17.194l-9.79,9.711c-0.425,0.431 -0.792,0.914 -1.075,1.45l-0.564,1.086l-3.933,2.004l-1.56,-1.562l1.92,-4.019l1.086,-0.566c0.536,-0.281 1.051,-0.616 1.48,-1.045l9.79,-9.711l2.646,2.652Z" />
</svg>
