<svg xmlns="http://www.w3.org/2000/svg" viewBox="0 0 47 47">
    <path stroke-width="1" fill="none" d="M2.975,24.211c4.23,7.444 8.531,14.846 12.898,22.209l-10.085,0c-1.555,0 -2.813,-1.265 -2.813,-2.812l0,-19.397Zm5.344,1.61c6.146,3.66 24.124,14.359 24.602,14.635l-9.679,5.587c-0.433,0.248 -0.919,0.377 -1.408,0.377c-1.03,0 -1.945,-0.559 -2.436,-1.406l-11.079,-19.193Zm3.562,-24.024c-0.431,-0.249 -0.917,-0.377 -1.406,-0.377c-0.982,0 -1.924,0.52 -2.436,1.406l-6.562,11.367c-0.249,0.431 -0.377,0.917 -0.377,1.404c0,0.988 0.521,1.928 1.406,2.438c5.505,3.178 27.338,16.312 32.843,19.492c1.346,0.774 3.062,0.315 3.84,-1.031l6.562,-11.366c0.25,-0.432 0.349,-0.915 0.349,-1.405c0,-0.975 -0.482,-1.922 -1.376,-2.437l-32.843,-19.491m0.469,7.395c2.07,0 3.75,1.68 3.75,3.75c0,2.07 -1.68,3.75 -3.75,3.75c-2.07,0 -3.75,-1.68 -3.75,-3.75c0,-2.07 1.68,-3.75 3.75,-3.75"/>
</svg>
