<?xml version="1.0" standalone="no"?>
<!DOCTYPE svg PUBLIC "-//W3C//DTD SVG 20010904//EN"
 "http://www.w3.org/TR/2001/REC-SVG-20010904/DTD/svg10.dtd">
<svg version="1.0" xmlns="http://www.w3.org/2000/svg"
 width="700.000000pt" height="700.000000pt" viewBox="0 0 700.000000 700.000000"
 preserveAspectRatio="xMidYMid meet">
<metadata>
Created by potrace 1.11, written by Peter Selinger 2001-2013
</metadata>
<g transform="translate(0.000000,700.000000) scale(0.100000,-0.100000)"
fill="#000000" stroke="none">
<path d="M3060 6875 c-69 -7 -138 -15 -155 -18 -16 -3 -52 -9 -80 -12 -27 -4
-77 -13 -110 -21 -33 -7 -71 -15 -85 -18 -109 -19 -370 -101 -520 -163 -568
-235 -1080 -633 -1448 -1128 -121 -163 -242 -358 -316 -510 -16 -33 -40 -82
-53 -108 l-24 -48 67 -29 c36 -17 71 -30 78 -30 6 0 31 42 55 93 160 339 377
641 659 918 223 218 420 367 677 511 285 159 682 305 960 352 228 38 256 42
400 53 249 18 508 4 795 -43 66 -11 243 -55 359 -90 398 -121 832 -362 1156
-642 112 -97 350 -341 394 -405 8 -12 23 -30 32 -41 29 -31 152 -206 201 -286
266 -432 427 -914 476 -1430 9 -100 9 -506 -1 -600 -9 -77 -10 -91 -22 -170
-13 -92 -16 -107 -41 -220 -188 -844 -720 -1596 -1456 -2058 -179 -112 -447
-237 -663 -310 -114 -38 -368 -105 -445 -117 -19 -3 -78 -12 -130 -20 -147
-23 -258 -30 -475 -30 -178 0 -307 7 -400 20 -16 3 -48 7 -70 10 -22 3 -96 17
-165 31 -781 162 -1498 635 -1970 1300 -143 201 -254 410 -396 743 -42 97 -79
179 -82 183 -4 4 -7 -528 -8 -1183 l-1 -1190 81 3 81 3 2 425 c1 234 3 601 3
815 1 261 4 385 11 375 6 -8 40 -63 77 -122 164 -262 398 -537 647 -759 146
-130 413 -314 611 -421 341 -185 786 -328 1159 -374 28 -3 61 -7 75 -9 172
-23 591 -23 735 0 17 2 48 6 70 9 385 41 886 216 1265 440 103 61 257 162 270
176 3 3 21 17 40 30 176 121 482 416 630 609 14 18 35 44 48 59 55 66 171 242
264 400 147 251 292 639 359 962 19 91 23 116 34 198 3 20 7 53 10 72 38 243
35 677 -5 920 -6 30 -12 71 -14 90 -14 109 -70 340 -120 492 -310 942 -1034
1718 -1941 2080 -194 78 -476 163 -606 182 -20 3 -42 8 -50 10 -8 3 -30 7 -49
10 -46 6 -183 24 -240 31 -101 13 -518 13 -640 0z"/>
</g>
</svg>
