<svg style="display: none;" xmlns="http://www.w3.org/2000/svg" xmlns:xlink="http://www.w3.org/1999/xlink"><symbol viewBox="0 -1 13 14" id="icon-arrow" xmlns="http://www.w3.org/2000/svg"><path fill="none" d="M0 6h12M6 0l6 6-6 6"/></symbol><symbol viewBox="0 0 47 47" id="icon-service1" xmlns="http://www.w3.org/2000/svg"><path fill="none" d="M2.975 24.211c4.23 7.444 8.531 14.846 12.898 22.209H5.788a2.815 2.815 0 0 1-2.813-2.812V24.211zm5.344 1.61a25117.51 25117.51 0 0 0 24.602 14.635l-9.679 5.587a2.817 2.817 0 0 1-3.844-1.029L8.319 25.821zm3.562-24.024a2.812 2.812 0 0 0-3.842 1.029L1.477 14.193a2.81 2.81 0 0 0 1.029 3.842c5.505 3.178 27.338 16.312 32.843 19.492a2.812 2.812 0 0 0 3.84-1.031l6.562-11.366c.25-.432.349-.915.349-1.405 0-.975-.482-1.922-1.376-2.437L11.881 1.797m.469 7.395c2.07 0 3.75 1.68 3.75 3.75 0 2.07-1.68 3.75-3.75 3.75-2.07 0-3.75-1.68-3.75-3.75 0-2.07 1.68-3.75 3.75-3.75"/></symbol><symbol viewBox="0 0 47 47" id="icon-service2" xmlns="http://www.w3.org/2000/svg"><g fill="none"><path d="M18.256 28v3.944H22M41.128 9.816V5.872h-3.743"/><path d="M46 35H15V1"/><path d="M16 1h24.5L46 5.5V46H1V1h15zM1.256 23.444h14M41.128 5.872L18.256 31.944"/></g></symbol><symbol viewBox="0 0 47 47" id="icon-service3" xmlns="http://www.w3.org/2000/svg"><path fill="none" d="M44.683 37.661L22.31 15.288a5.064 5.064 0 0 1-1.467-3.961 9.884 9.884 0 0 0-2.864-7.766A9.829 9.829 0 0 0 11.006.683c-.949 0-1.901.134-2.819.404l5.938 5.938c.644 2.976-3.669 7.338-6.681 6.68L1.508 7.768a10.018 10.018 0 0 0-.408 2.826c0 2.523.955 5.041 2.881 6.97a9.861 9.861 0 0 0 7.765 2.865 5.057 5.057 0 0 1 3.958 1.467l22.374 22.371a4.672 4.672 0 0 0 6.605-6.606zm-3.314 5.164a1.872 1.872 0 1 1-.001-3.745 1.872 1.872 0 0 1 .001 3.745zM26.507 14.189l9.977-9.961a5.573 5.573 0 0 1 3.958-1.644c1.431 0 2.864.547 3.958 1.644a5.604 5.604 0 0 1 1.652 3.98 5.572 5.572 0 0 1-1.635 3.952l-9.976 9.961-7.934-7.932zm-6.612 17.194l-9.79 9.711a6.183 6.183 0 0 0-1.075 1.45l-.564 1.086-3.933 2.004-1.56-1.562 1.92-4.019 1.086-.566c.536-.281 1.051-.616 1.48-1.045l9.79-9.711 2.646 2.652z"/></symbol></svg>
