<svg xmlns="http://www.w3.org/2000/svg" width="140" height="146" viewBox="0 0 140 146">
    <path fill="#fff" d="M1.632 144.4826H.7975v-43.4914h.8345v.0016l.009-.004c6.6122 15.25 18.5494 27.945 33.35 35.479 12.5596 6.3933 27.0357 8.9225 41.0487 7.2537 11.676-1.3908 22.9707-5.7234 32.5813-12.4715 12.9635-9.1027 22.8137-22.5733 27.4516-37.8193 4.1603-13.6789 4.105-28.6068-.1298-42.22-3.3977-10.9223-9.4913-21.0187-17.5485-29.1482-8.7294-8.8074-19.7837-15.317-31.7233-18.6278C72.7253-.4326 57.5883.0326 43.8862 4.803 31.9033 8.975 21.062 16.4283 12.8326 26.1035c-4.5089 5.3007-8.2509 11.2863-11.0342 17.61l-.0326.0743-.7641-.3354C6.708 30.4487 16.401 19.0644 28.5152 11.337 39.0952 4.588 51.4602.6708 64.0063.0811a74.7635 74.7635 0 013.5796-.081c9.1676.0218 18.3544 1.768 26.89 5.1945 14.0658 5.6467 26.2626 15.8129 34.391 28.7037 5.5513 8.804 9.174 18.833 10.5216 29.1687 1.2755 9.7853.5536 19.8357-2.1399 29.3206-4.3855 15.4462-14.097 29.3118-27.0838 38.7839-10.2163 7.4507-22.4163 12.1695-35.052 13.4938-14.5955 1.5286-29.5843-1.4325-42.4516-8.4842-13.1165-7.1896-23.9738-18.5668-30.522-32.1015a72.4876 72.4876 0 01-.5072-1.0711v41.4741zM110.89 97.2081h-1.9404v-.7835h1.374l1.2714-3.8143-2.8505-8.5507.7523-.2355 2.5164 7.5484c.8388-2.5172 1.6776-5.0336 2.5164-7.55l.7427.2395-4.3823 13.1461zm-24.3102-4.9855v.7667c-1.1048 0-2.2096.0048-3.3152 0-.8268-.0064-1.7049-.1386-2.2432-.7179-.5633-.6048-.6898-1.5302-.697-2.4187a345.3313 345.3313 0 010-2.8809c.0136-1.6231 1.362-3.1461 3.1389-3.179.0272-.0008.0545-.0008.0825-.0008 1.5943.0128 3.0997 1.314 3.1758 3.0364.0024.0545.004.109.004.1634v1.7946H81.099c0 .8492-.101 1.7177.2323 2.5244.2876.6938 1.16.9094 1.9789.9118h3.2695zm-41.3973 0v.7667c-1.1048 0-2.2096.0048-3.3143 0a6.3461 6.3461 0 01-.3702-.0129 4.831 4.831 0 01-.2852-.0248c-.5912-.0689-1.1897-.2507-1.5887-.6802-.568-.6104-.693-1.5486-.697-2.4467-.0016-.951-.0032-1.902 0-2.8529.0128-1.6303 1.3684-3.1453 3.139-3.179.0272 0 .0544-.0008.0817-.0008 1.6503.0136 3.175 1.3956 3.1805 3.1998v1.7954h-5.6257c0 .866-.0785 1.7746.2316 2.5236.282.6818 1.1296.9086 1.9796.9118h3.2687zM27.9015 83.792h2.667v.7747h-2.667v8.2936h-.7835v-8.2936h-1.261v-.7747h1.261v-4.0819h.7835v4.082zm31.3011 2.0446h-.7835v-1.2699h-3.4362v8.2936h-.7747V83.792h4.9944v2.0446zm41.0632 0h-.7836v-1.2699H96.047v8.2936h-.7755V83.792h4.9944v2.0446zm-88.385 7.0237h-.7747V83.792c1.1906 0 2.3803-.0024 3.5708 0 1.4629.012 2.8265 1.249 2.8305 2.849v6.2193h-.7836c0-2.0822.0169-4.1644 0-6.2466-.0144-1.044-.8764-2.0374-2.0517-2.047h-2.7912v8.2936zm-11.0966 0H.0004V83.929h.7838v8.9313zm69.5513 0h-.7836V83.929h.7836v8.9313zm-28.2239-8.2936c-1.249.0113-2.4059 1.0632-2.409 2.426v1.0102h4.8413c0-.6618.0673-1.3323-.165-1.9196-.3501-.882-1.2514-1.5078-2.2352-1.5166h-.032zm41.3972 0c-1.2385.0096-2.3978 1.0471-2.409 2.41l-.0008 1.0262h4.8421c0-.85.0513-1.7297-.4294-2.4027-.447-.6265-1.1705-1.027-1.9708-1.0335h-.032zm1.8443-5.838l-3.1966 2.3947-.4775-.6201 3.2222-2.4155c.1507.2131.3013.427.4519.641zM.784 80.9135H.0005V79.71h.7838v1.2034zm69.5514 0h-.7836V79.71h.7836v1.2034zM13.9358 69.6196c-.0192 2.6286-1.6512 5.1915-4.1282 6.2586-2.11.9101-4.7013.685-6.5925-.62C1.3949 74.0018.2254 71.9236.2188 69.5754V52.6792h.8365v16.8955c.0061 2.3434 1.456 4.658 3.702 5.5833 2.4454 1.0078 5.474.2179 7.1452-1.9757.7795-1.023 1.1777-2.3089 1.1809-3.6076V52.6792h.8524c0 5.6465.0144 11.293 0 16.9404zm44.7661 6.7986h-6.8587V52.4276c2.2961 0 4.5922-.0032 6.8883 0 2.132.012 4.3695.9574 5.246 3.054.894 2.1391.5592 4.7325-.9486 6.2859-.5576.5752-1.2522 1.0054-1.986 1.3251 1.664.5151 3.1653 1.6223 3.8872 3.2078.636 1.3972.765 2.9971.5448 4.5322-.2636 1.8354-1.3267 3.5146-2.982 4.4944-1.1304.649-2.4106 1.076-3.7317 1.0912h-.0593zm-31.5006-.2363h-.8364V52.4276c2.1904 0 4.3807-.004 6.571 0 2.5662.0145 5.291.9638 6.4983 3.5644.5968 1.2866.7242 2.7335.6168 4.13-.133 1.7248-.814 3.4569-2.1647 4.5216-.7923.6241-1.7521 1.0167-2.7383 1.2474l4.9615 10.0962-.7603.3405-5.0737-10.2748c-.0288.004-.0577.0088-.0865.0128-.4286.06-.862.0785-1.2955.0793h-5.6922v10.0369zm51.3772-6.173l-2.1014 6.2747-.8076-.2347 7.7736-23.3537h.7908c2.5965 7.784 5.193 15.5689 7.7896 23.3537l-.8076.2347-2.1014-6.2746h-10.536zm24.057 6.1738h-.8371V52.6792h.8156c4.0161 7.2344 8.0331 14.468 12.0493 21.7017V52.6792h.8524v23.5035h-.8147l-12.0654-21.688v21.688zm-43.336-12.6134h-6.6199V75.597c2.0165 0 4.0322.0048 6.0487 0 2.2673-.0152 4.521-1.3179 5.4343-3.2871.5215-1.1248.6329-2.4099.4975-3.654-.1675-1.5487-.9037-3.0244-2.2448-3.9273-.9294-.6257-2.0238-.9662-3.1157-1.1593zm19.5482 5.588h9.9824l-4.984-14.9663c-1.6664 4.9888-3.3328 9.9776-4.9984 14.9663zM27.2013 53.2801v12.0125c1.9108 0 3.8207.004 5.7315 0 1.426-.0072 2.8761-.2892 4.0618-1.0864.7651-.5151 1.37-1.2594 1.7321-2.1166.4487-1.06.5544-2.2425.4863-3.3705-.1001-1.6608-.765-3.332-2.2456-4.339-1.1657-.794-2.6238-1.092-4.0346-1.1-1.9108-.0032-3.8207 0-5.7315 0zm25.4783 0v9.4368c2.2272 0 4.4544.008 6.6809 0 .9605-.0113 1.8835-.5913 2.5949-1.181 1.1665-.9653 1.7185-2.4907 1.6031-4.077-.1017-1.3948-.7355-2.7816-2.0766-3.5259-.8316-.4623-1.7962-.6481-2.7536-.653-2.0157-.0031-4.0322 0-6.0487 0z"/>
</svg>

